# xmcd CD database file
#
# Track frame offsets:
#	150
#	9510
#	23630
#	34720
#	42162
#	51002
#	65420
#	77622
#	92254
#	106420
#	117288
#	124375
#	136909
#	147873
#	157246
#	168561
#	181602
#	193219
#	203486
#	215011
#	226028
#	237578
#	250319
#	260143
#	272968
#
# Disc length: 3804 seconds
#
# Revision: 0
# Processed by: cddbd v1.5.2PL0 Copyright (c) Steve Scherf et al.
# Submitted via: CDex 1.51
#
DISCID=600eda19
DTITLE=George Jones - Reflections (Disk 1)
DYEAR=2006
DGENRE=Country
TTITLE0=The Race Is On
TTITLE1=A Good Year For The Roses
TTITLE2=No Show Jones
TTITLE3=Jambalaya (On the Bayou)
TTITLE4=Love Bug
TTITLE5=Who's Gonna Fill Their Shoes
TTITLE6=My Favourite Lies
TTITLE7=It's Funny What A Fool Will Do
TTITLE8=Open Pit Mine
TTITLE9=Tender Years
TTITLE10=Ways Of The World And The Wants Of A Woman
TTITLE11=The Selfishness In Man
TTITLE12=Don't You Ever Get Tired Of Hurting Me
TTITLE13=World's Worst Loser
TTITLE14=There's No Justice
TTITLE15=Just A Girl I Used To Know
TTITLE16=She Thinks I Still Care
TTITLE17=Walk Through This World With Me
TTITLE18=White Lightning
TTITLE19=Once A Day
TTITLE20=A House Without Love Is Not A Home
TTITLE21=A Lifetime To Regret
TTITLE22=Back In My Baby's Arms Again
TTITLE23=When I Wake Up From Dreaming
TTITLE24=Brothers Of A Bottle
EXTD=YEAR: 2006
EXTT0=
EXTT1=
EXTT2=
EXTT3=
EXTT4=
EXTT5=
EXTT6=
EXTT7=
EXTT8=
EXTT9=
EXTT10=
EXTT11=
EXTT12=
EXTT13=
EXTT14=
EXTT15=
EXTT16=
EXTT17=
EXTT18=
EXTT19=
EXTT20=
EXTT21=
EXTT22=
EXTT23=
EXTT24=
PLAYORDER=
